/* XPM */
static char * icon_xpm[] = {
"32 32 185 2",
"  	c None",
". 	c #B7D569",
"+ 	c #A3C544",
"@ 	c #B4D065",
"# 	c #B5D365",
"$ 	c #B4D361",
"% 	c #B4D35E",
"& 	c #B2D25A",
"* 	c #AFCF56",
"= 	c #AACA50",
"- 	c #9CBD42",
"; 	c #B9D56C",
"> 	c #B9D76A",
", 	c #B7D566",
"' 	c #B5D462",
") 	c #B3D35B",
"! 	c #B1D257",
"~ 	c #AFD153",
"{ 	c #AED150",
"] 	c #ACCF4B",
"^ 	c #BBD770",
"/ 	c #BBD86D",
"( 	c #B8D666",
"_ 	c #B5D461",
": 	c #ADD04F",
"< 	c #ACCE4C",
"[ 	c #AACE48",
"} 	c #6B802E",
"| 	c #BCD971",
"1 	c #BAD76C",
"2 	c #DFEDBB",
"3 	c #EBF3D4",
"4 	c #ADCF4F",
"5 	c #B1D156",
"6 	c #A9CC45",
"7 	c #A9CD44",
"8 	c #45551B",
"9 	c #BDD974",
"0 	c #C1DB7A",
"a 	c #CFE399",
"b 	c #A9CD46",
"c 	c #FBFCF7",
"d 	c #D1E49C",
"e 	c #A8CC44",
"f 	c #A7CC40",
"g 	c #BEDA75",
"h 	c #BCD972",
"i 	c #BBD86E",
"j 	c #ADD050",
"k 	c #B4D35C",
"l 	c #ABCE4A",
"m 	c #A6CC40",
"n 	c #94B044",
"o 	c #585759",
"p 	c #868B7C",
"q 	c #4C4D4B",
"r 	c #5E5F5A",
"s 	c #8C9378",
"t 	c #BACC87",
"u 	c #C2D982",
"v 	c #B7D760",
"w 	c #B4D55A",
"x 	c #B1D356",
"y 	c #AFD152",
"z 	c #ADD04E",
"A 	c #ACCE4B",
"B 	c #AACD47",
"C 	c #A8CD43",
"D 	c #A6CB3F",
"E 	c #A7CD3D",
"F 	c #22241B",
"G 	c #171717",
"H 	c #434343",
"I 	c #5B5A5B",
"J 	c #4D4D4D",
"K 	c #4A4A4A",
"L 	c #464646",
"M 	c #434243",
"N 	c #3E3E3F",
"O 	c #3B3B3C",
"P 	c #404040",
"Q 	c #3F3F3D",
"R 	c #3F413B",
"S 	c #404239",
"T 	c #3E4136",
"U 	c #3E4135",
"V 	c #3C3F32",
"W 	c #34372C",
"X 	c #404434",
"Y 	c #9EB263",
"Z 	c #3D4720",
"` 	c #181819",
" .	c #272727",
"..	c #535353",
"+.	c #4F4F4F",
"@.	c #4C4C4C",
"#.	c #484848",
"$.	c #444444",
"%.	c #414141",
"&.	c #3E3E3E",
"*.	c #3A3A3A",
"=.	c #373737",
"-.	c #343434",
";.	c #303030",
">.	c #2D2D2D",
",.	c #292929",
"'.	c #262626",
").	c #222222",
"!.	c #1F1F1F",
"~.	c #171618",
"{.	c #494A46",
"].	c #222122",
"^.	c #3D3D3D",
"/.	c #6C6C6C",
"(.	c #545454",
"_.	c #505050",
":.	c #494949",
"<.	c #424242",
"[.	c #3F3F3F",
"}.	c #3C3C3C",
"|.	c #383838",
"1.	c #353535",
"2.	c #323232",
"3.	c #2E2E2E",
"4.	c #2A2A2A",
"5.	c #282828",
"6.	c #242424",
"7.	c #202020",
"8.	c #1D1D1D",
"9.	c #151515",
"0.	c #252525",
"a.	c #575757",
"b.	c #555555",
"c.	c #525252",
"d.	c #4B4B4B",
"e.	c #474747",
"f.	c #363636",
"g.	c #333333",
"h.	c #2C2C2C",
"i.	c #1E1E1E",
"j.	c #1B1B1B",
"k.	c #2F2F2F",
"l.	c #161616",
"m.	c #B7B7B7",
"n.	c #5A5A5A",
"o.	c #454545",
"p.	c #3B3B3B",
"q.	c #313131",
"r.	c #232323",
"s.	c #1C1C1C",
"t.	c #979797",
"u.	c #5C5C5C",
"v.	c #585858",
"w.	c #515151",
"x.	c #393939",
"y.	c #1A1A1A",
"z.	c #181818",
"A.	c #848484",
"B.	c #565656",
"C.	c #131313",
"D.	c #626262",
"E.	c #5E5E5E",
"F.	c #5B5B5B",
"G.	c #4E4E4E",
"H.	c #2B2B2B",
"I.	c #212121",
"J.	c #191919",
"K.	c #141414",
"L.	c #606060",
"M.	c #595959",
"N.	c #111111",
"O.	c #616161",
"P.	c #676767",
"Q.	c #636363",
"R.	c #5F5F5F",
"S.	c #828282",
"T.	c #6A6A6A",
"U.	c #656565",
"V.	c #717171",
"W.	c #9C9C9C",
"X.	c #6D6D6D",
"Y.	c #767676",
"Z.	c #7A7A7A",
"`.	c #8F8F8F",
" +	c #959595",
"                                                                ",
"                                                                ",
"                                                                ",
"                                                                ",
"                                                                ",
"                .                 +                             ",
"                @ # $ % & * =     -                             ",
"              ; > , ' % ) ! ~ { ]                               ",
"            ^ / ( _ ' % ) ! ~ : < [ }                           ",
"            | 1 2 3 _ % ) ! ~ 4 5 6 7 8                         ",
"          9 | / 0 a ' % ) ! ~ b c d e f                         ",
"          g h i > , ' % ) ! ~ j k l e m n o                     ",
"          p q r s t u v w x y z A B C D E F G H                 ",
"        I J K L M N O P Q R S T U V W X Y Z `  .                ",
"        ..+.@.#.$.%.&.*.=.-.;.>.,.'.).!.~.{.].G ^.              ",
"      /.(._.J :.L <.[.}.|.1.2.3.4.5.6.7.8.9.@.9.0.              ",
"      a.b.c.+.d.e.$.%.^.*.f.g.;.h.5.'.).i.j.3.k.l.K             ",
"    m.n.a...+.J :.o.<.[.p.|.-.q.3.4.'.r.7.s.l.$.l.,.            ",
"    t.u.v.b.w.J d.e.H P ^.x.f.g.k.h.5.0.).i.y.e.z.8.J           ",
"    A.u.n.B...+.@.#.o.%.&.p.=.-.q.>.,.'.r.!.s.C.K G ..          ",
"    D.E.F.v.(._.G.K L H P }.x.1.2.k.H. .0.I.8.J.[.K.6.          ",
"    L.L.u.M.B.c.G.@.#.$.%.&.*.=.g.;.>.,.0.r.!.j.p.N.I.          ",
"    O.O.E.F.a.(.+.:.L H &.p.p.|.1.2.3.4. .6.I.8.J.d.i.          ",
"    P.Q.R.u.M.a.S.        R.T.U.^.;.;.h.,.0.).i.G b.z.V.        ",
"    W.Q.O.F.X.                    Q.=.3.4.'.6.7.y.L l.Y.        ",
"      Z.V.`.                          *.h.5.6.I.i.k.9.          ",
"                                        f.4.'.r.!.q.6.          ",
"                                          =. .6.7.^.            ",
"                                            Z.).i. +            ",
"                                                                ",
"                                                                ",
"                                                                "};
