/* XPM */
static char *iconlarge[] = {
/* columns rows colors chars-per-pixel */
"128 128 92 1",
"  c #161616",
". c #1C1C1C",
"X c #1F1F20",
"o c #242424",
"O c #272728",
"+ c #282729",
"@ c #2B2B2C",
"# c #2F2E30",
"$ c #302F31",
"% c #333335",
"& c #373638",
"* c #38373A",
"= c #3B3A3D",
"- c #4D543A",
"; c #69783F",
": c #3F3D40",
"> c #403F42",
", c #434245",
"< c #474846",
"1 c #4A4B46",
"2 c #474548",
"3 c #48474A",
"4 c #4B4A4D",
"5 c #4E5145",
"6 c #515644",
"7 c #555B44",
"8 c #585F43",
"9 c #4F4D51",
"0 c #504E52",
"q c #5B6443",
"w c #5E6842",
"e c #616C42",
"r c #657142",
"t c #697741",
"y c #6D7C40",
"u c #6D852A",
"i c #778F34",
"p c #74863F",
"a c #778A3F",
"s c #7A8F3F",
"d c #7D933E",
"f c #6F8040",
"g c #798D40",
"h c #80973E",
"j c #849D3D",
"k c #85A332",
"l c #89A733",
"z c #8DAC35",
"x c #89A43D",
"c c #8DAA3C",
"v c #90AE3C",
"b c #92B236",
"n c #97B936",
"m c #94B43A",
"M c #9ABC3B",
"N c #9EC23A",
"B c #A3C937",
"V c #A1C53B",
"C c #A4CA39",
"Z c #A9CE3D",
"A c #ABD13E",
"S c #A6CA40",
"D c #A9CE41",
"F c #ACCF4A",
"G c #ADD341",
"H c #ADD04E",
"J c #B0D644",
"K c #B5DC46",
"L c #AFD151",
"P c #B2D257",
"I c #B3D35B",
"U c #B7D562",
"Y c #BBD76B",
"T c #BCD86E",
"R c #C3DC7D",
"E c #C6DE83",
"W c #CAE08C",
"Q c #CEE395",
"! c #D0E499",
"~ c #D5E7A4",
"^ c #D7E8A9",
"/ c #DAE9AE",
"( c #DCEBB4",
") c #E0EDBC",
"_ c #E5F0C7",
"` c #EBF3D4",
"' c #EEF5DB",
"] c #F3F8E4",
"[ c #F5F9EA",
"{ c #FAFCF5",
"} c #FFFFFE",
"| c None",
/* pixels */
"||||||||||||||||||||||||||||||||||||||||||||||||||||||||||||||||||||||||||||||||||||||||||||||||||||||||||||||||||||||||||||||||",
"||||||||||||||||||||||||||||||||||||||||||||||||||||||||||||||||||||||||||||||||||||||||||||||||||||||||||||||||||||||||||||||||",
"||||||||||||||||||||||||||||||||||||||||||||||||||||||||||||||||||||||||||||||||||||||||||||||||||||||||||||||||||||||||||||||||",
"||||||||||||||||||||||||||||||||||||||||||||||||||||||||||||||||||||||||||||||||||||||||||||||||||||||||||||||||||||||||||||||||",
"||||||||||||||||||||||||||||||||||||||||||||||||||||||||||||||||||||||||||||||||||||||||||||||||||||||||||||||||||||||||||||||||",
"||||||||||||||||||||||||||||||||||||||||||||||||||||||||||||||||||||||||||||||||||||||||||||||||||||||||||||||||||||||||||||||||",
"||||||||||||||||||||||||||||||||||||||||||||||||||||||||||||||||||||||||||||||||||||||||||||||||||||||||||||||||||||||||||||||||",
"||||||||||||||||||||||||||||||||||||||||||||||||||||||||||||||||||||||||||||||||||||||||||||||||||||||||||||||||||||||||||||||||",
"||||||||||||||||||||||||||||||||||||||||||||||||||||||||||||||||||||||||||||||||||||||||||||||||||||||||||||||||||||||||||||||||",
"|||||||||||||||||||||||||||||||||||||||KG|||||||||||||||||||||||||||||||||||||||||||||||JG||||||||||||||||||||||||||||||||||||||",
"|||||||||||||||||||||||||||||||||||||||JKm|||||||||||||||||||||||||||||||||||||||||||||DKS||||||||||||||||||||||||||||||||||||||",
"|||||||||||||||||||||||||||||||||||||||MKJ||||||||||||||||||||||||||||||||||||||||||||cKK|||||||||||||||||||||||||||||||||||||||",
"||||||||||||||||||||||||||||||||||||||||JKV|||||||||||||||||||||||||||||||||||||||||||GKS|||||||||||||||||||||||||||||||||||||||",
"||||||||||||||||||||||||||||||||||||||||mKJ||||||||||||||||||||||||||||||||||||||||||MKJ||||||||||||||||||||||||||||||||||||||||",
"|||||||||||||||||||||||||||||||||||||||||JKS|||||||||||||||||||||||||||||||||||||||||JKN||||||||||||||||||||||||||||||||||||||||",
"|||||||||||||||||||||||||||||||||||||||||mKK||||||||||||||||||||||||||||||||||||||||SKJ|||||||||||||||||||||||||||||||||||||||||",
"||||||||||||||||||||||||||||||||||||||||||GKD|||||||||||||||||||||||||||||||||||||||KKM|||||||||||||||||||||||||||||||||||||||||",
"||||||||||||||||||||||||||||||||||||||||||vKKz|||||||||||lnNSCGZDDDZVMmk|||||||||||DKJ||||||||||||||||||||||||||||||||||||||||||",
"|||||||||||||||||||||||||||||||||||||||||||DKG|||||||MCGGGGAAAAZZZZAAAGAGGVb||||||vKKM||||||||||||||||||||||||||||||||||||||||||",
"|||||||||||||||||||||||||||||||||||||||||||kKKv||kMGGGZZCCCCCCCCCCCCCCCZZZAAGCm|||GKG|||||||||||||||||||||||||||||||||||||||||||",
"||||||||||||||||||||||||||||||||||||||||||||SKGNGGAAZCCCCCCCBCCCCCCCCBCCCCCCZAAGDCKKv|||||||||||||||||||||||||||||||||||||||||||",
"||||||||||||||||||||||||||||||||||||||||||||nKAAZCCBCCCCCCCCNCCCCCCCCCCCCCCCBCCCAAJJu|||||||||||||||||||||||||||||||||||||||||||",
"|||||||||||||||||||||||||||||||||||||||||||MGAZCCCCCCCCCCCCCCCCCCBCCCCCCCCCCCCCCCCCGZl||||||||||||||||||||||||||||||||||||||||||",
"|||||||||||||||||||||||||||||||||||||||||lDGCZCCCCCCCCZCCCCCCCCCCCCCCCCCCCCCCCCCCCCCZGV|||||||||||||||||||||||||||||||||||||||||",
"||||||||||||||||||||||||||||||||||||||||NAZCCCCBCCCCCCCCCCCCCCCCCCCCCCCCCCCCCCCBCCCCCZAZl|||||||||||||||||||||||||||||||||||||||",
"|||||||||||||||||||||||||||||||||||||||CAZCCCCCCCCCCCCCCCCCCCCCCCCCCCCCCCCCCCCCCCCCCCCBZGN||||||||||||||||||||||||||||||||||||||",
"|||||||||||||||||||||||||||||||||||||zGZCCCCCCCCCCCCCCCCCCCBCCCBCBCCCCCBCCCCCCCCCCCCCCCCZGC|||||||||||||||||||||||||||||||||||||",
"||||||||||||||||||||||||||||||||||||MAZCCCCCCCCCCCCBCCCCCCCCCCCCCVCCCCCCCCBCCCCCCCCCCCCCCCZD||||||||||||||||||||||||||||||||||||",
"|||||||||||||||||||||||||||||||||||MAZCCCCCCCCCCCCCCCCBCCCCCCCCCCCCCCCCCCCCCCCCCCCCCCCCCCCCZZ|||||||||||||||||||||||||||||||||||",
"||||||||||||||||||||||||||||||||||MACCCCCCCCCBCCCCCCCCCCCCCCCCBCCCCCCCCCCCCCCCCCCCCCCCCBCCCCCA||||||||||||||||||||||||||||||||||",
"|||||||||||||||||||||||||||||||||mAZCCCCCCCCCVCCCCCCCCCCCCCCCCCCCBCCCCCCVCCCCCCCCCCCVCCCCCCCZCZ|||||||||||||||||||||||||||||||||",
"||||||||||||||||||||||||||||||||lACCCCCCCCCCCCCCBCCCCCCCCCCCCCCCCCCCCCCCBCCCBCCCCCCCBCCCCCCCCCAV||||||||||||||||||||||||||||||||",
"||||||||||||||||||||||||||||||||DZCCCCCCCCCCBBCBCCCCCCCCCCCCCCCCCCCCCCCCCCCCCCCCBNCBCCCCCCCCCCCAN|||||||||||||||||||||||||||||||",
"|||||||||||||||||||||||||||||||CZCCCCCCCCCCCIQ~EDBCCCCCCCCCCCCCCCCCCNCCCCCCCCCCCPQ~EFBCCCCCCCCCCZm||||||||||||||||||||||||||||||",
"||||||||||||||||||||||||||||||MCCBCCCCCCCCBY'}}{/DCCCCCCCCCCCCCCCCCCBCCCCCCCCCCU'}}{(LCCCCCCCCCCZC||||||||||||||||||||||||||||||",
"||||||||||||||||||||||||||||||AZCCCCCCCCCBD_}}}}{RBCCCCCCCCCCCCCCCCCCCCCCCCCCCS(}}}}{WBCCCCCCCBCCZN|||||||||||||||||||||||||||||",
"|||||||||||||||||||||||||||||VZCCCCCCCCCCBL[}}}}}!NBCCCCCCCCCCCCCCBCCCCCCBCCCCF`}}}}}^CCCCCCCCCCZCDk||||||||||||||||||||||||||||",
"||||||||||||||||||||||||||||lZCCCCCCCCCBCCF'}}}}}WBBCCCCCCCCCCCBCCCCCCBCCCCCCCS_}}}}}QBCBCCCCCCCCCCC||||||||||||||||||||||||||||",
"||||||||||||||||||||||||||||CCCCCCCCCCCCCCCQ}}}}`PBCCCCCCCCBCCCCCCCCCCCCCCCCCCCE{}}}]UBCCCCCCCCCCCCZb|||||||||||||||||||||||||||",
"|||||||||||||||||||||||||||lZCCCCCCCVBCCCCBDQ'])UCCCCBCCCCCNCCCCCCCCCCCCCCCCCCCCE`')TCCCCCCCCCCCCCCCC|||||||||||||||||||||||||||",
"|||||||||||||||||||||||||||NCCCCCCBCCCCCCCCBCFFSCCCCCNCCNCCCCCCCCCCBCCCCCCCCCCCCBDFSBCCCCCCCCCCCCCCCAl||||||||||||||||||||||||||",
"|||||||||||||||||||||||||||ZCCCCCCCCCCCCCCCCCCCCCCCCCCCCCCCCCCCCCCCCCCCCCCCCCCCCCCCCCCCCCCCCCCCCCCCCCV||||||||||||||||||||||||||",
"||||||||||||||||||||||||||nZCCCCCCCCCCBCCCCCCCCCCCCCCCCCCCCCCCCCCCCCCCCCCCCCCBCCCCCCCCCCCCCCCNBCCCCCCC||||||||||||||||||||||||||",
"||||||||||||||||||||||||||NCCCCCCCCCCCBZCCCCCCCCCCCCCCCCCCCCCCCCCCCCCCCCCCCCCCCCCCCCCCCCCCCCCCCCCCCCCCb|||||||||||||||||||||||||",
"||||||||||||||||||||||||||CCCCCCCCZBCNNNCZCBCCCCCCCCCCBBCCCCCCCCCBBCCCCCCCCCCCCCBBCCCCCCNBCCCCCBCCCCCCN|||||||||||||||||||||||||",
"|||||||||||||||||||||||||bZCCCCCNcdp;rewpxnNNCZCCCCCCCBNCCCCCCCCCBZCCCCBCZCCCCCCCZCZCCCNNvvmNNCZCCCCCCC|||||||||||||||||||||||||",
"|||||||||||||||||||||||||nZBCCmsw5,,,<,<,17wt;adxcvmNnNNNNNNNNNNNCNNNMNMMMMMnmmmccjhsg;r7515qwygMCCCCCC|||||||||||||||||||||||||",
"|||||||||||||||||||||||||NCCvf6<,3<343433332,,<<1155667qqwwrwerrrrwwwqqq776665555111,,2,<322<<3<qsnCCCCm||||||||||||||||||||||||",
"|||||||||||||||||||||||||CCj62<3344494944411<3<43333<222<222<,2<,,<23<,33<3<2332<<<313<444<4<41<2<qdNCZn||||||||||||||||||||||||",
"|||||||||||||||||||||||||Cx5,314444999999999944<4<4<<44<4<<4244<34<3<44<434<<44<444444449499494<3221tnCN||||||||||||||||||||||||",
"||||||||||||||||||||||||kMq234490000900000009999099949999499949444944944444994999990040999999999443<<wmV||||||||||||||||||||||||",
"||||||||||||||||||||||||zg,24490000000000000000000990999999099990000000000000090900000000000909004433<rn||||||||||||||||||||||||",
"||||||||||||||||||||||||i7234900000000000000000000000000000000000000000000000000000000000000000009944<<;||||||||||||||||||||||||",
"||||||||||||||||||||||||-22990000000000000000000000000000000000000000000000000000000000000000000009941<<||||||||||||||||||||||||",
"||||||||||||||||||||||||-:44990000000000000000000000000000000000000000000000000000000000000000000099943<:|||||||||||||||||||||||",
"|||||||||||||||||||||||&<149900000000000000000000000000000000000000000000000000000000000000000000000944<,|||||||||||||||||||||||",
"|||||||||||||||||||||||,<34000000000000000000000000000000000000000000000000000000000000000000000000009<<<&||||||||||||||||||||||",
"||||||||||||||||||||||&<<3400000000000000000000000000000000000000000000000000000000000000000000000000944<,||||||||||||||||||||||",
"||||||||||||||||||||||,<149000000000000000000000000000000000000000000000000000000000000000000000000009943,&|||||||||||||||||||||",
"||||||||||||||||||||||,3499000000000000000000000000000000000000000000000000000000000000000000000000000941<:|||||||||||||||||||||",
"|||||||||||||||||||||=23499000000000000000000000000000000000000000000000000000000000000000000000000000994<<|||||||||||||||||||||",
"|||||||||||||||||||||,234000000000000000000000000000000000000000000000000000000000000000000000000000009941,=||||||||||||||||||||",
"||||||||||||||||||||*,2440000000000000000000000000000000000000000000000000000000000000000000000000000099443,||||||||||||||||||||",
"||||||||||||||||||||-:2490999099000000000000000000000000000000000000000000000000000000000000000000000009943,&|||||||||||||||||||",
"||||||||||||||||||||>>>440999999000900000000000000000000000000000000000000000000000000000000000000000000044<:|||||||||||||||||||",
"|||||||||||||||||||:>>949499949900>000000000909000000000000000000000000000000000000000000000000000000000044<<|||||||||||||||||||",
"|||||||||||||||||||:>99949949499000099000900999099900900000000000000000000000000000000000000000000000000044<,*||||||||||||||||||",
"|||||||||||||||||||>4>>444449499>0000>0>0>00>99999990999099000000000000000000000000000000000000000000000000<<,||||||||||||||||||",
"||||||||||||||||||::>944444409900>009>000>0000099000099999990009000900000000000000000000000000000000000000442,||||||||||||||||||",
"||||||||||||||||||=:>>444444>9>009>000000000>900>0900099999900000000999909000000000000000000000000000000000432:|||||||||||||||||",
"||||||||||||||||||::3434444309>90>00>00000>000000>>000009099>0999990999999900900000000000000000000000000000433:|||||||||||||||||",
"|||||||||||||||||%=>>>333334>900000>00>>9>900>0>0900>90>900>9990499499999999990999099000000000000000000000093<,|||||||||||||||||",
"|||||||||||||||||*=:,224>09>999>>00>00>0009>00009>09>>0049>99>0094499999999999999999999999990000000000000099333%||||||||||||||||",
"|||||||||||||||||*::22229>>99>9>0>0>>0>9>0>00>>9900>09>9990990>949449393944999939999999999999990000000000009933:||||||||||||||||",
"||||||||||||||||#==:2222>9>9>9>9>0>00>0>9>>09>00>0090000>044999944493999494999999999900999999999990909909009439>||||||||||||||||",
"||||||||||||||||%==-,2229>9>9>9>0>0>>0>00>0>>09>0>>0>>0>90>4>0>9444393394444439390>99>0999999999999999999999944>||||||||||||||||",
"||||||||||||||||&*:,,2229>>9>>9>>09>0>9>>0>00>0>>0>90>0994444944344439333439393999>999>9>99999>9990940999999339>&|||||||||||||||",
"||||||||||||||||&*::,2,,>99>99>99>>9>9>90>0>>0>90>90>00>>4>94>4943433939444493939009>909090>990044409449999994>>*|||||||||||||||",
"|||||||||||||||@&*:,,22,>>>9>>>>>>0>>>>0>0>99>0>>90>>9>944>4>44>33333393349244249>0>0909>999090>49444499449444>9:|||||||||||||||",
"|||||||||||||||$=*:>,,,,>9>>>99>>9>>00>>>0>>0>>0>>>>9>9>>444>43433333323332424330>990>>9090>>99944444944494943>>-|||||||||||||||",
"|||||||||||||||%#:::::9>>9>>9>>>>>>9>>09>>9>>>0>33>>3333>3>444>4333333334>494>4>9499>4>9>999>009399344444444432,:|||||||||||||||",
"|||||||||||||||%:#::::>>>>9>>>>9>9>>>9>>>9>>9>9>>333>33>33>3>44>>333>333444>499>9>>494>499>9>9>9333944444444432,:#||||||||||||||",
"|||||||||||||||%:::::>>>>>>>>>>>>>>>>>>>>9>9>>>>>3>23>33>4334>4>33333>3>3>4>>444>9>9>9949>>999>0934334433444432,>&||||||||||||||",
"||||||||||||||@&#::::>>>>>>>>9>>>>9>>9>>>>>>9>9>2>33>3>33>3>>4>43>>333334>334>>49>9>9>9>9>9>>99>333333333334433>>=||||||||||||||",
"||||||||||||||@%::::::::>>>>>>>>>>9>>>>99>>>>>>9>2>>2>>2>>3>3>3>4>3>>33>4>43333>>4>9>4>9>9>99>9>3333333334333322:*||||||||||||||",
"||||||||||||||#%#:::::::>>>>>>>>>>>>>>>>>>>>>>>>2>>2>2>2>3>3>3>4>3>33>>3>3>3>>334>4>9>9>9>9>>9>9334>33333333332>::||||||||||||||",
"||||||||||||||#%#:::::::>>>>>>>>>>>>>>>>>>>9>>>>2>>2>2>>>>>>>>3>>33>>33>3>3>3>>3>>>9>9>>>99>>99>>333322323332222-=||||||||||||||",
"||||||||||||||@%::::::::>>>>>>>>>>>>>>>>>>>>>>>>>>>>>>2>>33>>3>>>>>>3>>3>3>3>33>>9>9>>>9>9>>9>>9333>22222333222>:*$|||||||||||||",
"|||||||||||||O#%::::::::::::::::::::::::>>::>>>>:>>>>>>>>>2>>>>>>>>33>>>>>3>3>33>>>99>>>>>9>9>>>3>>4>4>42222222>-=&|||||||||||||",
"|||||||||||||+@%#:#:::::::::::::::::::::>>::::>>::>>>>>>>>>>>>>:3>>>>>>33>>>>>>>>4>>>>>94>4>>>9>>34>4>4>22223>22:*&|||||||||||||",
"|||||||||||||+$%#::::::##::::::#::::::::::::::::::::>>:>>>>>>>::>>>>:>::>>3>>33>>>>>9>>>>>>>>99>33>3>4>>2>2222>>=**|||||||||||||",
"|||||||||||||@@%:#::#::::::#::::#:::::#::::::::::::::>::>>>>>>::>>>>::::>>>>>>>>>4>>>>>9>9>>>>>>>>3>>>>422>>>22>:=*|||||||||||||",
"|||||||||||||@@%:#:##:#:::::::#:::#:::::::::::::::::::::::::::-:>>::::::>>::::>>>>>>>>>>>>>>>49>>>>>4>4>22>22>2>:*&|||||||||||||",
"|||||||||||||@@%#:::::::#::#::::::::#::::::#:::::::&::::::::::::::::::::>>::::>:>>>>>>>>9>>>>>>>>4>>>>>>>>>2>2>>==&@||||||||||||",
"|||||||||||||+#%#::::##::::#:#:::::#::::#::::::::&&:&::*::::=:==::::::::::::::::>>>>>>>>>>>>>>>>>>>4>>>4>2>>2>>>-*&@||||||||||||",
"||||||||||||X@@$#:##::::##:::#:#:#:::#:#::::#::::&::&&:*&&&&=***:::%::#:::::::::>>>>>>>>:>>>>>>>>>>>>>>>>2>2>>::=*&@||||||||||||",
"||||||||||||o+@%%&**%:%:%::%::#::&*&*::%:%:*==*****&%&%%&%%%%%%%%%%%&%&%&&***=*==:::::::>>>:>>>>>>>>>>>>:::::::::::O||||||||||||",
"||||||||||||o+@%%&&&:%:%%%%:#::%***:*&&:&:%:*&*&&&%%$$$$$@@$$$$$$$$$$$$%$$%%%%&&**===:::=>=>>>=>>>>>>>>>:::::::::::@||||||||||||",
"||||||||||||o@@#%&&&:%%%::%%#:#:********%:&&&%%%@@#@@@@@@@@@++++OO+@++@@@@$$$%%%%&&*===:::>>=>>>>>>::::>:::::::::##+||||||||||||",
"||||||||||||Xo@%%&&&%%::%%%::#:%****&***:&%%%#@@@@@oo||||||||||||||||||||||oO+@@$$%%&=======>==:>>>>:::::::::::::::#||||||||||||",
"||||||||||||o+@#%&&&%&&%@:#:#:#:&&&*&&&&%%###@@+o||||||||||||||||||||||||||||||oO@$$%%&*===:>=:>:::::::::::::::::@%#||||||||||||",
"||||||||||||o+@#%%%%%%&%:@:@:#:#&*&%&&%%##@#+oo|||||||||||||||||||||||||||||||||||o@@%%%*=======::%:::::::::#:::::##||||||||||||",
"||||||||||||Xo@#%%%%%&%&@:@:@:@:&%&%&%%#@+++X|||||||||||||||||||||||||||||||||||||||o@@%%&======%:::::::::::::::#%##||||||||||||",
"||||||||||||oo@#%%%%%%%%:@:+:@:@%&%&%$@@+Oo||||||||||||||||||||||||||||||||||||||||||X@@#%&**===:::%:%::::#::::::###||||||||||||",
"||||||||||||Xo@######:#:+::+:+:+%&%%$#@+OX|||||||||||||||||||||||||||||||||||||||||||||@@%%&&*==%:::::#:::::::::&&#@||||||||||||",
"||||||||||||Xo+@#:#:####:++:+:+:%%$##++oX|||||||||||||||||||||||||||||||||||||||||||||||o@@%%&**:%:#:#::#::#:#:@&%#@||||||||||||",
"||||||||||||Xo+@########O:O+#O:+%$#@+oo.|||||||||||||||||||||||||||||||||||||||||||||||||+@@$%&*:%:#::#::::#::::&%#+||||||||||||",
"||||||||||||.Xo@###+:###:O+:::O:##@ooo.|||||||||||||||||||||||||||||||||||||||||||||||||||o@@%%&#:%:#::::#:::@:#%%##||||||||||||",
"||||||||||||.Xo@#######:##O:OO##@@+oo.|||||||||||||||||||||||||||||||||||||||||||||||||||||o@@$%:#:#::#:#:#::#::%%@o||||||||||||",
"||||||||||||.Xo@############+::+@ooX.|||||||||||||||||||||||||||||||||||||||||||||||||||||||o@@@@:@::#:#:#::::@:%@@o||||||||||||",
"|||||||||||| .oo+###########O:oOoo..|||||||||||||||||||||||||||||||||||||||||||||||||||||||||o@@@%::#:#:#::#@:::$@@.||||||||||||",
"|||||||||||||.Xo++##########O+OXo..|||||||||||||||||||||||||||||||||||||||||||||||||||||||||||o++@@##::#:#@::@@@@@@|||||||||||||",
"|||||||||||||..o+###@###@#:ooOXXX |||||||||||||||||||||||||||||||||||||||||||||||||||||||||||||oo@@#%%%&&&&&&&%%@@o|||||||||||||",
"||||||||||||| .XO+#+##+##++OoXXX |||||||||||||||||||||||||||||||||||||||||||||||||||||||||||||||oo+@@#%%%%%&%%%@@@X|||||||||||||",
"||||||||||||||.XXOO#+@@+OOOXXX  |||||||||||||||||||||||||||||||||||||||||||||||||||||||||||||||||oo@@@@%%%%%%%@@@o||||||||||||||",
"|||||||||||||| .XXoO+++XoXXXXX||||||||||||||||||||||||||||||||||||||||||||||||||||||||||||||||||||.ooo@@@#$$@@@@o.||||||||||||||",
"||||||||||||||| ..XOXXXXXXXX |||||||||||||||||||||||||||||||||||||||||||||||||||||||||||||||||||||||Xooo+++@@@ooo|||||||||||||||",
"|||||||||||||||   .X..XX   |||||||||||||||||||||||||||||||||||||||||||||||||||||||||||||||||||||||||||.oooooooo.||||||||||||||||",
"|||||||||||||||| X.X XXX |||||||||||||||||||||||||||||||||||||||||||||||||||||||||||||||||||||||||||||||.XXX..||||||||||||||||||",
"||||||||||||||||||||||||||||||||||||||||||||||||||||||||||||||||||||||||||||||||||||||||||||||||||||||||||||||||||||||||||||||||",
"||||||||||||||||||||||||||||||||||||||||||||||||||||||||||||||||||||||||||||||||||||||||||||||||||||||||||||||||||||||||||||||||",
"||||||||||||||||||||||||||||||||||||||||||||||||||||||||||||||||||||||||||||||||||||||||||||||||||||||||||||||||||||||||||||||||",
"||||||||||||||||||||||||||||||||||||||||||||||||||||||||||||||||||||||||||||||||||||||||||||||||||||||||||||||||||||||||||||||||",
"||||||||||||||||||||||||||||||||||||||||||||||||||||||||||||||||||||||||||||||||||||||||||||||||||||||||||||||||||||||||||||||||",
"||||||||||||||||||||||||||||||||||||||||||||||||||||||||||||||||||||||||||||||||||||||||||||||||||||||||||||||||||||||||||||||||",
"||||||||||||||||||||||||||||||||||||||||||||||||||||||||||||||||||||||||||||||||||||||||||||||||||||||||||||||||||||||||||||||||",
"||||||||||||||||||||||||||||||||||||||||||||||||||||||||||||||||||||||||||||||||||||||||||||||||||||||||||||||||||||||||||||||||",
"||||||||||||||||||||||||||||||||||||||||||||||||||||||||||||||||||||||||||||||||||||||||||||||||||||||||||||||||||||||||||||||||"
};
