/* XPM */
static char *icon[] = {
/* columns rows colors chars-per-pixel */
"32 32 196 2",
"   c #181819",
".  c #1A1A1A",
"X  c #1B1B1B",
"o  c #1C1C1C",
"O  c #1F1F20",
"+  c #212122",
"@  c #222223",
"#  c #242324",
"$  c #242424",
"%  c #252526",
"&  c #262626",
"*  c #262627",
"=  c #272728",
"-  c #29292A",
";  c #2A292A",
":  c #2A2A2C",
">  c #2B2B2C",
",  c #2C2C2C",
"<  c #2C2C2D",
"1  c #2D2D2E",
"2  c #2D2D2F",
"3  c #2E2D2E",
"4  c #2E2D2F",
"5  c #2E2E2E",
"6  c #2E2E2F",
"7  c #2F2E2F",
"8  c #2F2F30",
"9  c #2F2F31",
"0  c #302F31",
"q  c #313031",
"w  c #303032",
"e  c #313032",
"r  c #313132",
"t  c #323134",
"y  c #323234",
"u  c #333234",
"i  c #333334",
"p  c #333335",
"a  c #343435",
"s  c #343436",
"d  c #353437",
"f  c #353537",
"g  c #363537",
"h  c #373637",
"j  c #363538",
"k  c #373638",
"l  c #373639",
"z  c #373739",
"x  c #383739",
"c  c #38373A",
"v  c #383839",
"b  c #38383A",
"n  c #39393A",
"m  c #39383B",
"M  c #39393B",
"N  c #3A393A",
"B  c #3A393B",
"V  c #3A393C",
"C  c #3A3A3C",
"Z  c #3B3A3C",
"A  c #3B3B3C",
"S  c #3B3A3D",
"D  c #3B3B3D",
"F  c #3C3B3D",
"G  c #3C3B3E",
"H  c #3D3C3E",
"J  c #3D3C3F",
"K  c #3E3D3F",
"L  c #3E3D40",
"P  c #3F3D41",
"I  c #3F3E41",
"U  c #403E42",
"Y  c #403F42",
"T  c #413F43",
"R  c #404041",
"E  c #414043",
"W  c #424044",
"Q  c #424144",
"!  c #434145",
"~  c #434244",
"^  c #434245",
"/  c #444246",
"(  c #444346",
")  c #454347",
"_  c #444445",
"`  c #454447",
"'  c #464647",
"]  c #4C4D47",
"[  c #464448",
"{  c #464548",
"}  c #474548",
"|  c #474549",
" . c #474648",
".. c #474649",
"X. c #484749",
"o. c #48464A",
"O. c #48474A",
"+. c #49474B",
"@. c #49484B",
"#. c #4C4D49",
"$. c #4F4F4B",
"%. c #4A484C",
"&. c #4A494C",
"*. c #4B494D",
"=. c #4B4A4D",
"-. c #4C4A4D",
";. c #4C4A4E",
":. c #4C4B4E",
">. c #4D4B4E",
",. c #4C4A4F",
"<. c #4D4B4F",
"1. c #4D4D4C",
"2. c #4D4C4D",
"3. c #4E4D4C",
"4. c #4E4E4C",
"5. c #4F4F4C",
"6. c #4D4C4F",
"7. c #51524A",
"8. c #555A48",
"9. c #4D4A50",
"0. c #4E4C50",
"q. c #4E4D50",
"w. c #4E4C51",
"e. c #4F4D51",
"r. c #4F4E51",
"t. c #504E52",
"y. c #687543",
"u. c #71833E",
"i. c #7A8F3E",
"p. c #7D923F",
"a. c #7E943F",
"s. c #7F963E",
"d. c #728341",
"f. c #728441",
"g. c #758740",
"h. c #849D3D",
"j. c #86A03D",
"k. c #88A23D",
"l. c #8AA53D",
"z. c #8BA83C",
"x. c #8CA83C",
"c. c #8DA93C",
"v. c #8DAA3C",
"b. c #97B936",
"n. c #97B937",
"m. c #97BA36",
"M. c #98BB37",
"N. c #99BB37",
"B. c #95B53B",
"V. c #99BB38",
"C. c #99BA3B",
"Z. c #9ABD38",
"A. c #9CBF38",
"S. c #9DC139",
"D. c #9EC139",
"F. c #9EC338",
"G. c #9FC439",
"H. c #9FC13D",
"J. c #A3C936",
"K. c #A3C937",
"L. c #A3CA37",
"P. c #A0C439",
"I. c #A0C539",
"U. c #A2C739",
"Y. c #A0C23D",
"T. c #A3C939",
"R. c #A3CA38",
"E. c #A4C939",
"W. c #A4CA38",
"Q. c #A4CA39",
"!. c #A4CB39",
"~. c #A5CB39",
"^. c #A4C93A",
"/. c #A4CA3A",
"(. c #A5CA3A",
"). c #A5CB3A",
"_. c #A6CB3B",
"`. c #A5CC39",
"'. c #A6CD3A",
"]. c #A5CA3C",
"[. c #A6CB3C",
"{. c #A7CD3C",
"}. c #ACD047",
"|. c #ADD048",
" X c #AED04E",
".X c #AED050",
"XX c #B3D35B",
"oX c #B4D35B",
"OX c #B4D45D",
"+X c #B5D45F",
"@X c #BDD86F",
"#X c #BED972",
"$X c #D4E6A2",
"%X c #ECF4D5",
"&X c #ECF4D7",
"*X c None",
/* pixels */
"*X*X*X*X*X*X*X*X*X*X*X*X*X*X*X*X*X*X*X*X*X*X*X*X*X*X*X*X*X*X*X*X",
"*X*X*X*X*X*X*X*X*X*X*X*X*X*X*X*X*X*X*X*X*X*X*X*X*X*X*X*X*X*X*X*X",
"*X*X*X*X*X*X*X*X*X*X*X*X*X*X*X*X*X*X*X*X*X*X*X*X*X*X*X*X*X*X*X*X",
"*X*X*X*X*X*X*X*X*X*XY.*X*X*X*X*X*X*X*X*X*XH.*X*X*X*X*X*X*X*X*X*X",
"*X*X*X*X*X*X*X*X*X*X*XC.*X*XF.F.I.F.C.*X*X*X*X*X*X*X*X*X*X*X*X*X",
"*X*X*X*X*X*X*X*X*X*X*X].].~.~.~.~.~.~.T.].*X*X*X*X*X*X*X*X*X*X*X",
"*X*X*X*X*X*X*X*X*Xn.~.~.T.~.T.~.T.~.T.~.~.~.Z.*X*X*X*X*X*X*X*X*X",
"*X*X*X*X*X*X*X*XM.~.T.T.T.T.~.T.~.T.~.T.T.R.~.A.*X*X*X*X*X*X*X*X",
"*X*X*X*X*X*X*X*X~.T..X$XXXJ.~.~.~.T.J. X$X+X`.`.n.*X*X*X*X*X*X*X",
"*X*X*X*X*X*X*XI.~.J.+X&X@XJ.~.T.T.~.J.XX%X@XJ.`.I.*X*X*X*X*X*X*X",
"*X*X*X*X*X*X*X~.~.T.~.|.{.'.'.'.'.'.'.'.}.'.{.{.'.n.*X*X*X*X*X*X",
"*X*X*X*X*X*XM.c.d.y.f.s.h.l.c.c.x.z.l.l.h.s.g.g.B.F.*X*X*X*X*X*X",
"*X*X*X*X*X*Xu.7.9.9.9.-.1.1.1.7.#.$.1.1.1.9.9.-.8.i.*X*X*X*X*X*X",
"*X*X*X*X*X*X] q.t.t.t.t.t.t.t.t.t.t.t.t.t.t.q.t.q.#.*X*X*X*X*X*X",
"*X*X*X*X*X*X-.t.t.t.t.t.t.t.t.t.t.t.t.t.t.t.t.t.t.1.R *X*X*X*X*X",
"*X*X*X*X*X_ q.t.q.t.t.t.t.t.t.t.t.t.t.t.t.t.t.t.t.q. .*X*X*X*X*X",
"*X*X*X*X*X_ 9.9.9.q.t.t.t.t.t.t.t.t.t.t.t.t.t.t.t.t.-.*X*X*X*X*X",
"*X*X*X*XN o.-.-.-.-.-.-.9.9.q.9.q.t.q.t.t.t.t.t.t.t.1.~ *X*X*X*X",
"*X*X*X*XG _ o.o.+.+.o.*.*.*.*.-.-.-.1.9.9.q.q.q.t.t.t.X.*X*X*X*X",
"*X*X*X*XG ( ( [  .o. .o.o.o.+.+.*.@.*.*.*.*.9.9.-.9.-.o.*X*X*X*X",
"*X*X*X*XG Q Q ( Q ( ( (  .[ [  . . . .o.o.+.+.+.+.*.*.o.*X*X*X*X",
"*X*X*X< V U U U T T T T Q Q Q Q ( ( [ [ [ [ [  .o.o.o._ N *X*X*X",
"*X*X*X7 M G G L L L U U U U U R T T Q Q Q Q [ ( ( ( ( ( N *X*X*X",
"*X*X*X< c V V V G V G L G G G G G L L L T T T T Q Q Q Q N *X*X*X",
"*X*X*X> f c c c c c c f r < < 0 < 8 r i l G L L U U U U l *X*X*X",
"*X*X*X; i f i f l u < & *X*X*X*X*X*X*X*X*X0 c G G G L G i *X*X*X",
"*X*X*X* 0 u u u 8 = *X*X*X*X*X*X*X*X*X*X*X*X< f V V V V r *X*X*X",
"*X*X*X@ 9 0 0 > & *X*X*X*X*X*X*X*X*X*X*X*X*X*X; u l c l < *X*X*X",
"*X*X*Xo = : = O *X*X*X*X*X*X*X*X*X*X*X*X*X*X*X*X= < r 0 & *X*X*X",
"*X*X*X*X  o   *X*X*X*X*X*X*X*X*X*X*X*X*X*X*X*X*X*X*X& @ *X*X*X*X",
"*X*X*X*X*X*X*X*X*X*X*X*X*X*X*X*X*X*X*X*X*X*X*X*X*X*X*X*X*X*X*X*X",
"*X*X*X*X*X*X*X*X*X*X*X*X*X*X*X*X*X*X*X*X*X*X*X*X*X*X*X*X*X*X*X*X"
};
